<svg viewBox="0 0 1000 800" xmlns="http://www.w3.org/2000/svg">
  <!-- Move everything to account for new viewBox -->
  <g transform="translate(100,100)">
    <!-- Ship hull with more detail -->
    <path d="M50 400 L650 400 L700 500 L0 500 Z" fill="#34495e"/>
    <path d="M50 400 L650 400 L675 450 L25 450 Z" fill="#455a64"/>
    
    <!-- Ship deck base -->
    <rect x="450" y="300" width="150" height="100" fill="#7f8c8d"/>
    
    <!-- Control room with windows -->
    <g transform="translate(470,220)">
      <rect width="110" height="80" fill="#95a5a6"/>
      <rect x="10" y="10" width="20" height="15" fill="#ecf0f1"/>
      <rect x="40" y="10" width="20" height="15" fill="#ecf0f1"/>
      <rect x="70" y="10" width="20" height="15" fill="#ecf0f1"/>
      <!-- Antenna -->
      <rect x="50" y="-20" width="5" height="20" fill="#bdc3c7"/>
    </g>
    
    <!-- Railings -->
    <g stroke="#bdc3c7" stroke-width="2">
      <line x1="450" y1="300" x2="600" y2="300"/>
      <line x1="450" y1="300" x2="450" y2="400"/>
      <line x1="600" y1="300" x2="600" y2="400"/>
    </g>
    
    <!-- Container stacks - adjusted positions -->
    <g id="container-stack-1" transform="translate(200,310)">
      <rect width="60" height="30" fill="#e74c3c"/>
      <rect y="30" width="60" height="30" fill="#3498db"/>
      <rect y="60" width="60" height="30" fill="#2ecc71"/>
    </g>
    
    <g id="container-stack-2" transform="translate(270,280)">
      <rect width="60" height="30" fill="#3498db"/>
      <rect y="30" width="60" height="30" fill="#2ecc71"/>
      <rect y="60" width="60" height="30" fill="#f1c40f"/>
      <rect y="90" width="60" height="30" fill="#e74c3c"/>
    </g>
    
    <g id="container-stack-3" transform="translate(340,310)">
      <rect width="60" height="30" fill="#2ecc71"/>
      <rect y="30" width="60" height="30" fill="#f1c40f"/>
      <rect y="60" width="60" height="30" fill="#3498db"/>
    </g>
    
    <!-- Container details - adjusted to match new positions -->
    <g stroke="#2c3e50" stroke-width="0.5" fill="none">
      <rect x="200" y="310" width="60" height="90"/>
      <rect x="270" y="280" width="60" height="120"/>
      <rect x="340" y="310" width="60" height="90"/>
    </g>
    
    <!-- Water with animated waves - adjust for new width -->
    <path d="M-100 500 L900 500 L900 600 L-100 600 Z" fill="#3498db"/>
    <g fill="none" stroke="#fff" stroke-opacity="0.3">
      <path d="M-50 520 Q200 480 450 520 Q700 560 950 520 Q1100 480 1250 520">
        <animate attributeName="d" 
                 dur="3s"
                 repeatCount="indefinite"
                 values="M-50 520 Q200 480 450 520 Q700 560 950 520 Q1100 480 1250 520;
                        M-50 520 Q200 560 450 520 Q700 480 950 520 Q1100 560 1250 520;
                        M-50 520 Q200 480 450 520 Q700 560 950 520 Q1100 480 1250 520"/>
      </path>
    </g>
    
    <!-- Smoke from ship -->
    <g transform="translate(523,195)">
      <circle r="8" fill="#bdc3c7">
        <animate attributeName="cy" 
                 values="0;-20;-40"
                 dur="2s"
                 repeatCount="indefinite"/>
        <animate attributeName="opacity"
                 values="0.8;0.5;0"
                 dur="2s"
                 repeatCount="indefinite"/>
      </circle>
    </g>
  </g>
</svg>
