<svg width="1920" height="1080" xmlns="http://www.w3.org/2000/svg">
  <defs>
    <linearGradient id="grad" x1="0%" y1="0%" x2="100%" y2="100%">
      <stop offset="0%" style="stop-color:#0288d1;stop-opacity:1" />
      <stop offset="50%" style="stop-color:#1565c0;stop-opacity:1" />
      <stop offset="100%" style="stop-color:#283593;stop-opacity:1" />
    </linearGradient>
    
    <!-- Container symbol for reuse -->
    <symbol id="container" viewBox="0 0 100 100">
      <!-- Main container body -->
      <rect x="10" y="25" width="80" height="60" fill="none" stroke="currentColor" stroke-width="2"/>
      
      <!-- Ridged side pattern -->
      <g stroke="currentColor" stroke-width="1">
        <line x1="20" y1="25" x2="20" y2="85"/>
        <line x1="30" y1="25" x2="30" y2="85"/>
        <line x1="40" y1="25" x2="40" y2="85"/>
        <line x1="50" y1="25" x2="50" y2="85"/>
        <line x1="60" y1="25" x2="60" y2="85"/>
        <line x1="70" y1="25" x2="70" y2="85"/>
        <line x1="80" y1="25" x2="80" y2="85"/>
      </g>
      
      <!-- Corner fittings -->
      <rect x="8" y="23" width="6" height="6" fill="currentColor"/>
      <rect x="86" y="23" width="6" height="6" fill="currentColor"/>
      <rect x="8" y="81" width="6" height="6" fill="currentColor"/>
      <rect x="86" y="81" width="6" height="6" fill="currentColor"/>
    </symbol>
  </defs>

  <!-- Background gradient -->
  <rect width="100%" height="100%" fill="url(#grad)"/>

  <!-- Scattered containers with different sizes and opacities -->
  <g>
    <use href="#container" x="100" y="100" width="200" height="200" style="color:rgba(255,255,255,0.1)">
      <animateTransform attributeName="transform" type="translate" dur="15s" values="0,0; 50,50; 0,0" repeatCount="indefinite"/>
    </use>
    <use href="#container" x="500" y="300" width="150" height="150" style="color:rgba(255,255,255,0.05)">
      <animateTransform attributeName="transform" type="translate" dur="11s" values="0,0; -50,25; 0,0" repeatCount="indefinite"/>
    </use>
    <use href="#container" x="1200" y="200" width="180" height="180" style="color:rgba(255,255,255,0.08)">
      <animateTransform attributeName="transform" type="translate" dur="13s" values="0,0; 40,-40; 0,0" repeatCount="indefinite"/>
    </use>
    <use href="#container" x="800" y="600" width="120" height="120" style="color:rgba(255,255,255,0.06)">
      <animateTransform attributeName="transform" type="translate" dur="18s" values="0,0; -25,-25; 0,0" repeatCount="indefinite"/>
    </use>
  </g>
</svg>
